<mxfile host="app.diagrams.net" modified="2024-04-03T01:24:09.713Z" agent="Mozilla/5.0 (Windows NT 10.0; Win64; x64) AppleWebKit/537.36 (KHTML, like Gecko) Chrome/121.0.0.0 Safari/537.36 OPR/107.0.0.0" etag="zePMmjkRHKtrCWyRXwxT" version="24.2.1" type="github">
  <diagram name="P치gina-1" id="_O4dyPahXlaS4TQo0bn1">
    <mxGraphModel dx="2268" dy="774" grid="1" gridSize="10" guides="1" tooltips="1" connect="1" arrows="1" fold="1" page="1" pageScale="1" pageWidth="827" pageHeight="1169" math="0" shadow="0">
      <root>
        <mxCell id="0" />
        <mxCell id="1" parent="0" />
        <mxCell id="qNS4kIKimgGQZANI2-9I-9" value="" style="whiteSpace=wrap;html=1;aspect=fixed;movable=0;resizable=0;rotatable=0;deletable=0;editable=0;locked=1;connectable=0;" vertex="1" parent="1">
          <mxGeometry x="-550" y="90" width="3110" height="3110" as="geometry" />
        </mxCell>
        <mxCell id="qNS4kIKimgGQZANI2-9I-1" value="CRUD Projeto" style="ellipse;whiteSpace=wrap;html=1;" vertex="1" parent="1">
          <mxGeometry x="400" y="975" width="140" height="70" as="geometry" />
        </mxCell>
        <mxCell id="qNS4kIKimgGQZANI2-9I-78" style="rounded=0;orthogonalLoop=1;jettySize=auto;html=1;entryX=0.5;entryY=1;entryDx=0;entryDy=0;endArrow=none;endFill=0;" edge="1" parent="1" source="qNS4kIKimgGQZANI2-9I-6" target="qNS4kIKimgGQZANI2-9I-35">
          <mxGeometry relative="1" as="geometry" />
        </mxCell>
        <mxCell id="qNS4kIKimgGQZANI2-9I-6" value="Priorizar Tarefa" style="ellipse;whiteSpace=wrap;html=1;" vertex="1" parent="1">
          <mxGeometry x="350" y="1480" width="140" height="70" as="geometry" />
        </mxCell>
        <mxCell id="qNS4kIKimgGQZANI2-9I-63" style="edgeStyle=orthogonalEdgeStyle;rounded=0;orthogonalLoop=1;jettySize=auto;html=1;entryX=0.5;entryY=1;entryDx=0;entryDy=0;" edge="1" parent="1" source="qNS4kIKimgGQZANI2-9I-7" target="qNS4kIKimgGQZANI2-9I-32">
          <mxGeometry relative="1" as="geometry" />
        </mxCell>
        <mxCell id="qNS4kIKimgGQZANI2-9I-79" style="rounded=0;orthogonalLoop=1;jettySize=auto;html=1;" edge="1" parent="1" source="qNS4kIKimgGQZANI2-9I-7" target="qNS4kIKimgGQZANI2-9I-6">
          <mxGeometry relative="1" as="geometry" />
        </mxCell>
        <mxCell id="qNS4kIKimgGQZANI2-9I-7" value="Atribuir Tarefa" style="ellipse;whiteSpace=wrap;html=1;" vertex="1" parent="1">
          <mxGeometry x="500" y="1615" width="140" height="70" as="geometry" />
        </mxCell>
        <mxCell id="qNS4kIKimgGQZANI2-9I-55" style="edgeStyle=orthogonalEdgeStyle;rounded=0;orthogonalLoop=1;jettySize=auto;html=1;entryX=0.5;entryY=1;entryDx=0;entryDy=0;dashed=1;" edge="1" parent="1" source="qNS4kIKimgGQZANI2-9I-8" target="qNS4kIKimgGQZANI2-9I-12">
          <mxGeometry relative="1" as="geometry" />
        </mxCell>
        <mxCell id="qNS4kIKimgGQZANI2-9I-107" value="Depends" style="edgeLabel;html=1;align=center;verticalAlign=middle;resizable=0;points=[];" vertex="1" connectable="0" parent="qNS4kIKimgGQZANI2-9I-55">
          <mxGeometry x="-0.28" relative="1" as="geometry">
            <mxPoint as="offset" />
          </mxGeometry>
        </mxCell>
        <mxCell id="qNS4kIKimgGQZANI2-9I-8" value="Login Usu치rio" style="ellipse;whiteSpace=wrap;html=1;" vertex="1" parent="1">
          <mxGeometry x="283" y="780" width="140" height="70" as="geometry" />
        </mxCell>
        <mxCell id="qNS4kIKimgGQZANI2-9I-84" style="edgeStyle=orthogonalEdgeStyle;rounded=0;orthogonalLoop=1;jettySize=auto;html=1;endArrow=none;endFill=0;" edge="1" parent="1" source="qNS4kIKimgGQZANI2-9I-4" target="qNS4kIKimgGQZANI2-9I-31">
          <mxGeometry relative="1" as="geometry" />
        </mxCell>
        <mxCell id="qNS4kIKimgGQZANI2-9I-4" value="Definir Prazo&lt;br&gt;Projeto" style="ellipse;whiteSpace=wrap;html=1;" vertex="1" parent="1">
          <mxGeometry x="220" y="1190" width="140" height="70" as="geometry" />
        </mxCell>
        <mxCell id="qNS4kIKimgGQZANI2-9I-75" style="rounded=0;orthogonalLoop=1;jettySize=auto;html=1;entryX=1;entryY=1;entryDx=0;entryDy=0;dashed=1;" edge="1" parent="1" source="qNS4kIKimgGQZANI2-9I-3" target="qNS4kIKimgGQZANI2-9I-1">
          <mxGeometry relative="1" as="geometry" />
        </mxCell>
        <mxCell id="qNS4kIKimgGQZANI2-9I-76" value="Depends" style="edgeLabel;html=1;align=center;verticalAlign=middle;resizable=0;points=[];" vertex="1" connectable="0" parent="qNS4kIKimgGQZANI2-9I-75">
          <mxGeometry x="-0.1249" y="1" relative="1" as="geometry">
            <mxPoint as="offset" />
          </mxGeometry>
        </mxCell>
        <mxCell id="qNS4kIKimgGQZANI2-9I-3" value="CRUD Tarefa" style="ellipse;whiteSpace=wrap;html=1;" vertex="1" parent="1">
          <mxGeometry x="590" y="1220" width="140" height="70" as="geometry" />
        </mxCell>
        <mxCell id="qNS4kIKimgGQZANI2-9I-93" style="rounded=0;orthogonalLoop=1;jettySize=auto;html=1;entryX=0;entryY=0;entryDx=0;entryDy=0;" edge="1" parent="1" source="qNS4kIKimgGQZANI2-9I-11" target="qNS4kIKimgGQZANI2-9I-35">
          <mxGeometry relative="1" as="geometry" />
        </mxCell>
        <mxCell id="qNS4kIKimgGQZANI2-9I-102" style="edgeStyle=orthogonalEdgeStyle;rounded=0;orthogonalLoop=1;jettySize=auto;html=1;entryX=0.5;entryY=0;entryDx=0;entryDy=0;" edge="1" parent="1" source="qNS4kIKimgGQZANI2-9I-11" target="qNS4kIKimgGQZANI2-9I-30">
          <mxGeometry relative="1" as="geometry" />
        </mxCell>
        <mxCell id="qNS4kIKimgGQZANI2-9I-105" style="rounded=0;orthogonalLoop=1;jettySize=auto;html=1;entryX=0;entryY=0.5;entryDx=0;entryDy=0;" edge="1" parent="1" source="qNS4kIKimgGQZANI2-9I-11" target="qNS4kIKimgGQZANI2-9I-12">
          <mxGeometry relative="1" as="geometry" />
        </mxCell>
        <mxCell id="qNS4kIKimgGQZANI2-9I-106" style="rounded=0;orthogonalLoop=1;jettySize=auto;html=1;" edge="1" parent="1" source="qNS4kIKimgGQZANI2-9I-11" target="qNS4kIKimgGQZANI2-9I-8">
          <mxGeometry relative="1" as="geometry" />
        </mxCell>
        <mxCell id="qNS4kIKimgGQZANI2-9I-11" value="Usu치rio&lt;div&gt;Final&lt;/div&gt;&lt;div&gt;&lt;br&gt;&lt;/div&gt;" style="shape=umlActor;html=1;verticalLabelPosition=bottom;verticalAlign=top;align=center;" vertex="1" parent="1">
          <mxGeometry x="-510" y="850" width="66" height="120" as="geometry" />
        </mxCell>
        <mxCell id="qNS4kIKimgGQZANI2-9I-12" value="CRUD Usu치rio" style="ellipse;whiteSpace=wrap;html=1;" vertex="1" parent="1">
          <mxGeometry x="283" y="660" width="140" height="70" as="geometry" />
        </mxCell>
        <mxCell id="qNS4kIKimgGQZANI2-9I-110" style="rounded=0;orthogonalLoop=1;jettySize=auto;html=1;entryX=1;entryY=0.5;entryDx=0;entryDy=0;" edge="1" parent="1" source="qNS4kIKimgGQZANI2-9I-14" target="qNS4kIKimgGQZANI2-9I-12">
          <mxGeometry relative="1" as="geometry" />
        </mxCell>
        <mxCell id="qNS4kIKimgGQZANI2-9I-111" style="rounded=0;orthogonalLoop=1;jettySize=auto;html=1;" edge="1" parent="1" source="qNS4kIKimgGQZANI2-9I-14" target="qNS4kIKimgGQZANI2-9I-8">
          <mxGeometry relative="1" as="geometry" />
        </mxCell>
        <mxCell id="qNS4kIKimgGQZANI2-9I-112" style="rounded=0;orthogonalLoop=1;jettySize=auto;html=1;entryX=1;entryY=0.5;entryDx=0;entryDy=0;" edge="1" parent="1" source="qNS4kIKimgGQZANI2-9I-14" target="qNS4kIKimgGQZANI2-9I-1">
          <mxGeometry relative="1" as="geometry" />
        </mxCell>
        <mxCell id="qNS4kIKimgGQZANI2-9I-113" style="rounded=0;orthogonalLoop=1;jettySize=auto;html=1;entryX=0.5;entryY=0;entryDx=0;entryDy=0;" edge="1" parent="1" source="qNS4kIKimgGQZANI2-9I-14" target="qNS4kIKimgGQZANI2-9I-3">
          <mxGeometry relative="1" as="geometry" />
        </mxCell>
        <mxCell id="qNS4kIKimgGQZANI2-9I-114" style="rounded=0;orthogonalLoop=1;jettySize=auto;html=1;entryX=1;entryY=0;entryDx=0;entryDy=0;" edge="1" parent="1" source="qNS4kIKimgGQZANI2-9I-14" target="qNS4kIKimgGQZANI2-9I-30">
          <mxGeometry relative="1" as="geometry" />
        </mxCell>
        <mxCell id="qNS4kIKimgGQZANI2-9I-115" style="rounded=0;orthogonalLoop=1;jettySize=auto;html=1;entryX=1;entryY=0.5;entryDx=0;entryDy=0;edgeStyle=orthogonalEdgeStyle;" edge="1" parent="1" source="qNS4kIKimgGQZANI2-9I-14" target="qNS4kIKimgGQZANI2-9I-35">
          <mxGeometry relative="1" as="geometry">
            <Array as="points">
              <mxPoint x="1283" y="1405" />
            </Array>
          </mxGeometry>
        </mxCell>
        <mxCell id="qNS4kIKimgGQZANI2-9I-117" style="edgeStyle=elbowEdgeStyle;rounded=0;orthogonalLoop=1;jettySize=auto;html=1;entryX=1;entryY=0.5;entryDx=0;entryDy=0;" edge="1" parent="1" source="qNS4kIKimgGQZANI2-9I-14" target="qNS4kIKimgGQZANI2-9I-7">
          <mxGeometry relative="1" as="geometry">
            <Array as="points">
              <mxPoint x="1283" y="1290" />
            </Array>
          </mxGeometry>
        </mxCell>
        <mxCell id="qNS4kIKimgGQZANI2-9I-118" style="edgeStyle=orthogonalEdgeStyle;rounded=0;orthogonalLoop=1;jettySize=auto;html=1;entryX=1;entryY=0.5;entryDx=0;entryDy=0;" edge="1" parent="1" source="qNS4kIKimgGQZANI2-9I-14" target="qNS4kIKimgGQZANI2-9I-85">
          <mxGeometry relative="1" as="geometry">
            <Array as="points">
              <mxPoint x="1283" y="1515" />
            </Array>
          </mxGeometry>
        </mxCell>
        <mxCell id="qNS4kIKimgGQZANI2-9I-14" value="&lt;div&gt;Gestor&lt;/div&gt;&lt;div&gt;de&lt;/div&gt;&lt;div&gt;Projeto&lt;/div&gt;&lt;div&gt;&lt;br&gt;&lt;/div&gt;" style="shape=umlActor;html=1;verticalLabelPosition=bottom;verticalAlign=top;align=center;" vertex="1" parent="1">
          <mxGeometry x="1250" y="680" width="66" height="120" as="geometry" />
        </mxCell>
        <mxCell id="qNS4kIKimgGQZANI2-9I-56" style="rounded=0;orthogonalLoop=1;jettySize=auto;html=1;entryX=0;entryY=0.5;entryDx=0;entryDy=0;endArrow=classic;endFill=1;dashed=1;" edge="1" parent="1" source="qNS4kIKimgGQZANI2-9I-30" target="qNS4kIKimgGQZANI2-9I-1">
          <mxGeometry relative="1" as="geometry" />
        </mxCell>
        <mxCell id="qNS4kIKimgGQZANI2-9I-64" value="Extends" style="edgeLabel;html=1;align=center;verticalAlign=middle;resizable=0;points=[];rotation=0;" vertex="1" connectable="0" parent="qNS4kIKimgGQZANI2-9I-56">
          <mxGeometry x="0.018" relative="1" as="geometry">
            <mxPoint as="offset" />
          </mxGeometry>
        </mxCell>
        <mxCell id="qNS4kIKimgGQZANI2-9I-30" value="Monitorar Projeto" style="ellipse;whiteSpace=wrap;html=1;" vertex="1" parent="1">
          <mxGeometry x="150" y="975" width="140" height="70" as="geometry" />
        </mxCell>
        <mxCell id="qNS4kIKimgGQZANI2-9I-83" style="rounded=0;orthogonalLoop=1;jettySize=auto;html=1;entryX=0.5;entryY=1;entryDx=0;entryDy=0;endArrow=none;endFill=0;" edge="1" parent="1" source="qNS4kIKimgGQZANI2-9I-31" target="qNS4kIKimgGQZANI2-9I-30">
          <mxGeometry relative="1" as="geometry" />
        </mxCell>
        <mxCell id="qNS4kIKimgGQZANI2-9I-31" value="Organizar Projeto" style="ellipse;whiteSpace=wrap;html=1;" vertex="1" parent="1">
          <mxGeometry x="220" y="1075" width="140" height="70" as="geometry" />
        </mxCell>
        <mxCell id="qNS4kIKimgGQZANI2-9I-77" style="rounded=0;orthogonalLoop=1;jettySize=auto;html=1;endArrow=none;endFill=0;entryX=0.5;entryY=1;entryDx=0;entryDy=0;" edge="1" parent="1" source="qNS4kIKimgGQZANI2-9I-32" target="qNS4kIKimgGQZANI2-9I-35">
          <mxGeometry relative="1" as="geometry" />
        </mxCell>
        <mxCell id="qNS4kIKimgGQZANI2-9I-32" value="Organizar Tarefas" style="ellipse;whiteSpace=wrap;html=1;" vertex="1" parent="1">
          <mxGeometry x="500" y="1480" width="140" height="70" as="geometry" />
        </mxCell>
        <mxCell id="qNS4kIKimgGQZANI2-9I-60" style="rounded=0;orthogonalLoop=1;jettySize=auto;html=1;endArrow=classic;endFill=1;dashed=1;" edge="1" parent="1" source="qNS4kIKimgGQZANI2-9I-35" target="qNS4kIKimgGQZANI2-9I-3">
          <mxGeometry relative="1" as="geometry" />
        </mxCell>
        <mxCell id="qNS4kIKimgGQZANI2-9I-80" value="Extends" style="edgeLabel;html=1;align=center;verticalAlign=middle;resizable=0;points=[];" vertex="1" connectable="0" parent="qNS4kIKimgGQZANI2-9I-60">
          <mxGeometry x="-0.1027" y="2" relative="1" as="geometry">
            <mxPoint as="offset" />
          </mxGeometry>
        </mxCell>
        <mxCell id="qNS4kIKimgGQZANI2-9I-35" value="Monitorar Tarefas" style="ellipse;whiteSpace=wrap;html=1;" vertex="1" parent="1">
          <mxGeometry x="430" y="1370" width="140" height="70" as="geometry" />
        </mxCell>
        <mxCell id="qNS4kIKimgGQZANI2-9I-103" style="rounded=0;orthogonalLoop=1;jettySize=auto;html=1;entryX=0;entryY=0.5;entryDx=0;entryDy=0;" edge="1" parent="1" source="qNS4kIKimgGQZANI2-9I-43" target="qNS4kIKimgGQZANI2-9I-99">
          <mxGeometry relative="1" as="geometry" />
        </mxCell>
        <mxCell id="qNS4kIKimgGQZANI2-9I-104" style="rounded=0;orthogonalLoop=1;jettySize=auto;html=1;" edge="1" parent="1" source="qNS4kIKimgGQZANI2-9I-43" target="qNS4kIKimgGQZANI2-9I-95">
          <mxGeometry relative="1" as="geometry" />
        </mxCell>
        <mxCell id="qNS4kIKimgGQZANI2-9I-43" value="&lt;div&gt;Cliente&lt;/div&gt;" style="shape=umlActor;html=1;verticalLabelPosition=bottom;verticalAlign=top;align=center;" vertex="1" parent="1">
          <mxGeometry x="-330" y="1290" width="66" height="120" as="geometry" />
        </mxCell>
        <mxCell id="qNS4kIKimgGQZANI2-9I-82" style="rounded=0;orthogonalLoop=1;jettySize=auto;html=1;entryX=0.5;entryY=1;entryDx=0;entryDy=0;endArrow=none;endFill=0;" edge="1" parent="1" source="qNS4kIKimgGQZANI2-9I-58" target="qNS4kIKimgGQZANI2-9I-30">
          <mxGeometry relative="1" as="geometry" />
        </mxCell>
        <mxCell id="qNS4kIKimgGQZANI2-9I-58" value="Priorizar Projeto" style="ellipse;whiteSpace=wrap;html=1;" vertex="1" parent="1">
          <mxGeometry x="70" y="1075" width="140" height="70" as="geometry" />
        </mxCell>
        <mxCell id="qNS4kIKimgGQZANI2-9I-86" style="edgeStyle=orthogonalEdgeStyle;rounded=0;orthogonalLoop=1;jettySize=auto;html=1;entryX=1;entryY=0.5;entryDx=0;entryDy=0;endArrow=none;endFill=0;" edge="1" parent="1" source="qNS4kIKimgGQZANI2-9I-85" target="qNS4kIKimgGQZANI2-9I-32">
          <mxGeometry relative="1" as="geometry" />
        </mxCell>
        <mxCell id="qNS4kIKimgGQZANI2-9I-85" value="Definir Prazo&lt;br&gt;Tarefa" style="ellipse;whiteSpace=wrap;html=1;" vertex="1" parent="1">
          <mxGeometry x="687" y="1480" width="140" height="70" as="geometry" />
        </mxCell>
        <mxCell id="qNS4kIKimgGQZANI2-9I-97" style="rounded=0;orthogonalLoop=1;jettySize=auto;html=1;entryX=0;entryY=0.5;entryDx=0;entryDy=0;dashed=1;" edge="1" parent="1" source="qNS4kIKimgGQZANI2-9I-95" target="qNS4kIKimgGQZANI2-9I-35">
          <mxGeometry relative="1" as="geometry" />
        </mxCell>
        <mxCell id="qNS4kIKimgGQZANI2-9I-98" value="Depends" style="edgeLabel;html=1;align=center;verticalAlign=middle;resizable=0;points=[];" vertex="1" connectable="0" parent="qNS4kIKimgGQZANI2-9I-97">
          <mxGeometry x="0.1841" relative="1" as="geometry">
            <mxPoint as="offset" />
          </mxGeometry>
        </mxCell>
        <mxCell id="qNS4kIKimgGQZANI2-9I-95" value="Status&lt;div&gt;Tarefa&lt;/div&gt;" style="ellipse;whiteSpace=wrap;html=1;" vertex="1" parent="1">
          <mxGeometry x="210" y="1370" width="140" height="70" as="geometry" />
        </mxCell>
        <mxCell id="qNS4kIKimgGQZANI2-9I-100" style="edgeStyle=orthogonalEdgeStyle;rounded=0;orthogonalLoop=1;jettySize=auto;html=1;entryX=0;entryY=0.5;entryDx=0;entryDy=0;dashed=1;" edge="1" parent="1" source="qNS4kIKimgGQZANI2-9I-99" target="qNS4kIKimgGQZANI2-9I-30">
          <mxGeometry relative="1" as="geometry" />
        </mxCell>
        <mxCell id="qNS4kIKimgGQZANI2-9I-101" value="Depends" style="edgeLabel;html=1;align=center;verticalAlign=middle;resizable=0;points=[];" vertex="1" connectable="0" parent="qNS4kIKimgGQZANI2-9I-100">
          <mxGeometry x="0.011" relative="1" as="geometry">
            <mxPoint as="offset" />
          </mxGeometry>
        </mxCell>
        <mxCell id="qNS4kIKimgGQZANI2-9I-99" value="Status&lt;div&gt;Projeto&lt;/div&gt;" style="ellipse;whiteSpace=wrap;html=1;" vertex="1" parent="1">
          <mxGeometry x="-50" y="975" width="140" height="70" as="geometry" />
        </mxCell>
      </root>
    </mxGraphModel>
  </diagram>
</mxfile>
